<?xml version="1.0" encoding="utf-8"?>
<!-- Generator: Adobe Illustrator 21.0.0, SVG Export Plug-In . SVG Version: 6.00 Build 0)  -->
<svg version="1.1" baseProfile="basic" id="Слой_1"
	 xmlns="http://www.w3.org/2000/svg" xmlns:xlink="http://www.w3.org/1999/xlink" x="0px" y="0px" viewBox="0 0 189 59"
	 xml:space="preserve">
<g>
	<path d="M180.1999969,59.0999985H8.8000002C4,59.0999985,0,55.0999985,0,50.2999992V8.8999996
		c0-4.8000002,4-8.8000002,8.8000002-8.8000002h171.3999939C185,0.0999994,189,4.0999994,189,8.8999996v41.4000015
		C189,55.2000008,185,59.0999985,180.1999969,59.0999985z"/>
</g>
<g>
	<g>
		<path fill="#FFFFFF" d="M65.9223633,10.5585938v8.4462891l0.8261719,0.0283203l-0.0839844,3.2353516h-0.953125
			l-0.0839844-2.269043h-5.953125l-0.0839844,2.269043h-0.9521484l-0.0839844-3.2353516l0.7138672-0.0283203
			c0.3505859-0.644043,0.7001953-1.3305664,0.9248047-2.0732422c0.3222656-1.0922852,0.4482422-2.3530273,0.4482422-3.9780273
			v-2.3950195H65.9223633z M61.7758789,13.3457031c0,1.5131836-0.140625,2.7875977-0.4765625,3.8520508
			c-0.1962891,0.6586914-0.4902344,1.2890625-0.7705078,1.7929688h4.1748047v-7.4238281h-2.9277344V13.3457031z"/>
		<path fill="#FFFFFF" d="M74.2944336,16.5537109c0,2.5073242-1.7373047,3.6000977-3.3759766,3.6000977
			c-1.8349609,0-3.25-1.3447266-3.25-3.4882812c0-2.269043,1.4853516-3.5996094,3.3623047-3.5996094
			C72.9770508,13.065918,74.2944336,14.4804688,74.2944336,16.5537109z M68.9155273,16.6235352
			c0,1.4848633,0.8544922,2.6054688,2.0585938,2.6054688c1.1767578,0,2.0595703-1.1064453,2.0595703-2.6333008
			c0-1.1484375-0.5742188-2.6054688-2.03125-2.6054688S68.9155273,15.3349609,68.9155273,16.6235352z"/>
		<path fill="#FFFFFF" d="M80.6772461,19.7475586c-0.3222656,0.1679688-1.0371094,0.3920898-1.9472656,0.3920898
			c-2.0449219,0-3.3759766-1.3867188-3.3759766-3.4599609c0-2.0869141,1.4287109-3.6000977,3.6416016-3.6000977
			c0.7285156,0,1.3730469,0.1821289,1.7089844,0.3505859l-0.2792969,0.9521484
			c-0.2949219-0.1679688-0.7568359-0.3222656-1.4296875-0.3222656c-1.5546875,0-2.3945312,1.1489258-2.3945312,2.5634766
			c0,1.5688477,1.0078125,2.5356445,2.3525391,2.5356445c0.7011719,0,1.1630859-0.1821289,1.5136719-0.3364258
			L80.6772461,19.7475586z"/>
		<path fill="#FFFFFF" d="M86.9213867,13.2197266v0.9804688h-2.1152344v5.7993164h-1.21875v-5.7993164H81.472168v-0.9804688
			H86.9213867z"/>
		<path fill="#FFFFFF" d="M88.737793,13.2197266l1.4853516,4.0063477c0.1533203,0.4482422,0.3212891,0.9804688,0.4335938,1.3867188
			h0.0283203c0.1259766-0.40625,0.265625-0.9243164,0.4345703-1.4150391l1.3447266-3.9780273h1.3027344l-1.8496094,4.8325195
			c-0.8828125,2.3256836-1.484375,3.5161133-2.3251953,4.2446289c-0.6025391,0.5322266-1.2041016,0.7421875-1.5126953,0.7983398
			l-0.3085938-1.0366211c0.3085938-0.0981445,0.7148438-0.2939453,1.0791016-0.6020508
			c0.3359375-0.2666016,0.7558594-0.7426758,1.0361328-1.3730469c0.0566406-0.1259766,0.0986328-0.2241211,0.0986328-0.2939453
			c0-0.0703125-0.0283203-0.168457-0.0839844-0.3222656l-2.5078125-6.2475586H88.737793z"/>
		<path fill="#FFFFFF" d="M100.4589844,13.2197266v6.7797852h-1.2324219v-5.7993164h-3.1523438v5.7993164h-1.2192383v-6.7797852
			H100.4589844z"/>
		<path fill="#FFFFFF" d="M103.6484375,13.2197266v2.7314453h3.2207031v-2.7314453h1.21875v6.7797852h-1.21875v-3.0678711
			h-3.2207031v3.0678711h-1.21875v-6.7797852H103.6484375z"/>
		<path fill="#FFFFFF" d="M116.2363281,16.5537109c0,2.5073242-1.7363281,3.6000977-3.375,3.6000977
			c-1.8359375,0-3.25-1.3447266-3.25-3.4882812c0-2.269043,1.484375-3.5996094,3.3613281-3.5996094
			C114.9199219,13.065918,116.2363281,14.4804688,116.2363281,16.5537109z M110.8574219,16.6235352
			c0,1.4848633,0.8554688,2.6054688,2.0585938,2.6054688c1.1777344,0,2.0605469-1.1064453,2.0605469-2.6333008
			c0-1.1484375-0.5742188-2.6054688-2.03125-2.6054688S110.8574219,15.3349609,110.8574219,16.6235352z"/>
		<path fill="#FFFFFF" d="M120.7265625,13.3037109c0.4765625-0.0839844,1.359375-0.1538086,2.1582031-0.1538086
			c1.1347656,0,3.0117188,0.1821289,3.0117188,1.6948242c0,0.840332-0.6445312,1.3588867-1.4140625,1.5268555v0.027832
			c0.9941406,0.1401367,1.7226562,0.7006836,1.7226562,1.6811523c0,1.7788086-2.2421875,2.0029297-3.5722656,2.0029297
			c-0.7558594,0-1.5410156-0.0561523-1.90625-0.0839844V13.3037109z M121.890625,19.1870117
			c0.3496094,0.0419922,0.6015625,0.0561523,0.9941406,0.0561523c0.8261719,0,2.0585938-0.1962891,2.0585938-1.1767578
			s-0.9804688-1.1904297-2.15625-1.1904297h-0.8964844V19.1870117z M121.9042969,16.0634766h0.9238281
			c0.9101562,0,1.8496094-0.2661133,1.8496094-1.0644531c0-0.6723633-0.5878906-0.9946289-1.8203125-0.9946289
			c-0.40625,0-0.6582031,0.027832-0.953125,0.0556641V16.0634766z"/>
	</g>
	<path fill="#FFFFFF" d="M71.6999969,44.2000008c-1,0.4000015-2.9000015,0.9000015-5,0.9000015
		c-2.5999985,0-4.5999985-0.7000008-6.0999985-2.0999985c-1.4000015-1.2999992-2.2000008-3.4000015-2.2000008-5.7000008
		c0-4.9000015,3.5-8,8.6000023-8c1.9000015,0,3.4000015,0.3999996,4.0999985,0.7000008L70.5,32.3000031
		c-0.9000015-0.3999996-1.9000015-0.7000008-3.5-0.7000008c-3.2999992,0-5.5999985,2-5.5999985,5.5999985
		c0,3.5,2.2000008,5.5999985,5.4000015,5.5999985c1,0,1.8000031-0.0999985,2.0999985-0.2999992v-3.9000015h-2.6999969v-2.2000008
		h5.5C71.7000046,36.3999977,71.7000046,44.2000008,71.6999969,44.2000008z"/>
	<path fill="#FFFFFF" d="M85.6999969,39.2000008c0,4.0999985-2.9000015,6-5.6999969,6
		c-3.1999969,0-5.5999985-2.2000008-5.5999985-5.7999992c0-3.7000008,2.4000015-5.9000015,5.8000031-5.9000015
		C83.5,33.4000015,85.6999969,35.7999992,85.6999969,39.2000008z M77.3000031,39.2999992
		c0,2.2000008,1.0999985,3.7999992,2.8000031,3.7999992c1.5999985,0,2.6999969-1.5999985,2.6999969-3.7999992
		c0-1.7000008-0.8000031-3.7000008-2.6999969-3.7000008C78.0999985,35.5,77.3000031,37.4000015,77.3000031,39.2999992z"/>
	<path fill="#FFFFFF" d="M99.0999985,39.2000008c0,4.0999985-2.9000015,6-5.6999969,6
		c-3.1999969,0-5.5999985-2.2000008-5.5999985-5.7999992c0-3.7000008,2.4000015-5.9000015,5.8000031-5.9000015
		C96.9000015,33.4000015,99.0999985,35.7999992,99.0999985,39.2000008z M90.6999969,39.2999992
		c0,2.2000008,1.0999985,3.7999992,2.8000031,3.7999992c1.5999985,0,2.6999969-1.5999985,2.6999969-3.7999992
		c0-1.7000008-0.8000031-3.7000008-2.6999969-3.7000008C91.5,35.5,90.6999969,37.4000015,90.6999969,39.2999992z"/>
	<path fill="#FFFFFF" d="M112.1999969,33.7000008c0,0.7999992-0.0999985,1.7000008-0.0999985,3.2000008v6.2999992
		c0,2.2999992-0.5,4-1.6999969,5.0999985c-1.1999969,1-2.8000031,1.4000015-4.3000031,1.4000015
		c-1.4000015,0-2.9000015-0.2999992-3.9000015-0.9000015l0.5999985-2.0999985
		c0.6999969,0.4000015,1.9000015,0.9000015,3.3000031,0.9000015c1.8000031,0,3.1999969-1,3.1999969-3.4000015v-1l0,0
		c-0.5999985,1-1.8000031,1.7000008-3.3000031,1.7000008c-2.8000031,0-4.8000031-2.2999992-4.8000031-5.5
		c0-3.7000008,2.4000015-5.9000015,5.0999985-5.9000015c1.6999969,0,2.6999969,0.7999992,3.1999969,1.7000008l0,0l0.0999985-1.5
		H112.1999969z M109.1999969,38.2000008c0-0.2999992,0-0.5-0.0999985-0.7999992
		c-0.3000031-1-1.0999985-1.7999992-2.3000031-1.7999992c-1.5999985,0-2.8000031,1.4000015-2.8000031,3.7000008
		c0,1.9000015,1,3.4000015,2.6999969,3.4000015c1.0999985,0,2-0.7000008,2.3000031-1.7000008
		c0.0999985-0.2999992,0.0999985-0.7000008,0.0999985-1v-1.8000031H109.1999969z"/>
	<path fill="#FFFFFF" d="M115.5999985,28.5H118.5v16.2999992h-2.9000015V28.5z"/>
	<path fill="#FFFFFF" d="M123.9000015,40.0999985C124,42.0999985,125.5999985,43,127.3000031,43
		c1.3000031,0,2.3000031-0.2000008,3.1000061-0.5l0.3999939,2c-1,0.4000015-2.3000031,0.7000008-3.9000015,0.7000008
		c-3.5999985,0-5.8000031-2.2000008-5.8000031-5.7000008c0-3.0999985,1.9000015-6,5.5-6s4.7999954,3,4.7999954,5.4000015
		c0,0.5,0,0.9000015-0.1000061,1.2000008C131.2999878,40.1000023,123.9000015,40.1000023,123.9000015,40.0999985z
		 M128.8999939,38.0999985c0-1-0.3999939-2.7000008-2.3000031-2.7000008c-1.6999969,0-2.5,1.5999985-2.5999985,2.7000008
		H128.8999939z"/>
	<path fill="#FFFFFF" d="M139.6000061,29.6000004c1-0.2000008,2.3999939-0.2999992,4.3000031-0.2999992
		c2.1000061,0,3.6000061,0.3999996,4.6000061,1.2999992c0.8999939,0.7999992,1.5,1.9999981,1.5,3.3999996
		c0,1.5-0.5,2.7000008-1.3000031,3.5c-1.1000061,1.0999985-2.8999939,1.7000008-4.8999939,1.7000008c-0.5,0-1,0-1.3999939-0.0999985
		v5.7999992h-2.8000031V29.6000004H139.6000061z M142.3999939,36.7999992
		c0.3000031,0.0999985,0.8000031,0.0999985,1.3999939,0.0999985c2.1000061,0,3.3999939-1,3.3999939-2.9000015
		c0-1.7000008-1.1999969-2.6000004-3.1999969-2.6000004c-0.8000031,0-1.3000031,0.1000004-1.6000061,0.1000004v5.3000031
		H142.3999939z"/>
	<path fill="#FFFFFF" d="M152.6999969,28.5h2.8999939v16.2999992h-2.8999939V28.5z"/>
	<path fill="#FFFFFF" d="M165.3999939,44.9000015l-0.1999969-1.2000008h-0.1000061
		c-0.6999969,0.9000015-1.8999939,1.5-3.3000031,1.5c-2.3000031,0-3.5-1.5999985-3.5-3.2999992
		c0-2.7999992,2.5-4.2999992,6.6000061-4.2000008V37.5c0-0.7000008-0.3000031-2-2.3000031-2
		c-1.1000061,0-2.3000031,0.2999992-3,0.7999992L158.9999847,34.5c0.8000031-0.5,2.3000031-1,4-1
		c3.6000061,0,4.6000061,2.2999992,4.6000061,4.7000008v4c0,1,0,2,0.1999969,2.7000008H165.3999939z M165,39.4000015
		c-2,0-3.8999939,0.4000015-3.8999939,2.0999985c0,1.0999985,0.6999969,1.5999985,1.6000061,1.5999985
		c1.1000061,0,2-0.7000008,2.1999969-1.5c0.1000061-0.2000008,0.1000061-0.4000015,0.1000061-0.5999985v-1.5999985H165z"/>
	<path fill="#FFFFFF" d="M172.8000031,33.7000008l2,6c0.1999969,0.7000008,0.5,1.5,0.6000061,2.2000008h0.1000061
		c0.1999969-0.5999985,0.3999939-1.5,0.6000061-2.2000008l1.6999969-6h3l-2.8000031,7.5999985
		c-1.5,4.2000008-2.6000061,6-3.8999939,7.2000008c-1.1000061,1-2.3000031,1.4000015-3,1.4000015L170.5000153,47.5
		c0.5-0.0999985,1.1000061-0.4000015,1.6999969-0.7999992c0.5-0.2999992,1.1000061-1,1.5-1.7999992
		c0.1000061-0.2000008,0.1999969-0.4000015,0.1999969-0.5s0-0.2999992-0.1999969-0.5999985l-4.1000061-10.2999992h3.1999969
		V33.7000008z"/>
</g>
<g>
	<path fill="#FFFFFF" d="M39.5999985,22.2999992L19.7000008,11.6000004C18.7000008,11,17.5,11,16.6000004,11.4000006
		L33.5,28.2999992L39.5999985,22.2999992z"/>
	<path fill="#FFFFFF" d="M47,26.2000008l-5.7000008-3.1000004l-6.5,6.5l6.5,6.4999981L47,33
		C49.7000008,31.6000004,49.7000008,27.7000008,47,26.2000008z"/>
	<path fill="#FFFFFF" d="M15,12.3999996C14.3999996,13.0999994,14,14,14,15v29.2000008c0,1,0.3999996,1.9000015,1,2.5999985
		l17.2000008-17.2000008L15,12.3999996z"/>
	<path fill="#FFFFFF" d="M16.5,47.9000015c1,0.4000015,2.1000004,0.2999992,3.1000004-0.2000008L39.5999985,37L33.5,30.8999996
		L16.5,47.9000015z"/>
</g>
</svg>
