<?xml version="1.0" encoding="utf-8"?>
<!-- Generator: Adobe Illustrator 21.0.0, SVG Export Plug-In . SVG Version: 6.00 Build 0)  -->
<svg version="1.1" baseProfile="basic" id="Слой_1"
	 xmlns="http://www.w3.org/2000/svg" xmlns:xlink="http://www.w3.org/1999/xlink" x="0px" y="0px" viewBox="0 0 189 59"
	 xml:space="preserve">
<g>
	<path d="M180.1999969,59H8.8000002C4,59,0,55,0,50.2000008V8.8000002C0,4,4,0,8.8000002,0h171.3999939C185,0,189,4,189,8.8000002
		v41.4000015C189,55,185,59,180.1999969,59z"/>
</g>
<g>
	<path fill="#FFFFFF" d="M68.4000015,40.5L67,44.9000015h-2.9000015l5-15.5h3.5999985l5,15.5h-3L73.2999954,40.5H68.4000015z
		 M72.8000031,38.2999992L71.6000061,34.5c-0.3000031-0.9000015-0.5999985-2-0.8000031-2.8999996l0,0
		C70.6000061,32.5,70.3000031,33.5999985,70.1000061,34.5l-1.1999969,3.7999992H72.8000031z"/>
	<path fill="#FFFFFF" d="M80.0999985,37.4000015c0-1.5,0-2.7000008-0.0999985-3.7000008h2.5l0.0999985,1.7000008l0,0
		c0.8000031-1.2999992,2.0999985-2,3.8000031-2c2.5999985,0,4.6999969,2.2000008,4.6999969,5.7000008c0,4-2.5999985,6-5.0999985,6
		c-1.4000015,0-2.5999985-0.5999985-3.1999969-1.5l0,0v5.7999992H80v-12H80.0999985z M82.9000015,40.2000008
		c0,0.2999992,0,0.5,0.0999985,0.7999992c0.3000031,1.0999985,1.3000031,2,2.5,2c1.8000031,0,2.9000015-1.5,2.9000015-3.7000008
		c0-2-1-3.5999985-2.8000031-3.5999985c-1.1999969,0-2.3000031,0.9000015-2.5,2.0999985C83,38,83,38.2999992,83,38.5v1.7000008
		H82.9000015z"/>
	<path fill="#FFFFFF" d="M94,37.4000015c0-1.5,0-2.7000008-0.0999985-3.7000008h2.5L96.5,35.4000015l0,0
		c0.8000031-1.2999992,2.0999985-2,3.8000031-2c2.5999985,0,4.6999969,2.2000008,4.6999969,5.7000008c0,4-2.5999985,6-5.0999985,6
		c-1.4000015,0-2.5999985-0.5999985-3.1999969-1.5l0,0v5.7999992H94V37.4000015z M96.9000015,40.2000008
		c0,0.2999992,0,0.5,0.0999985,0.7999992c0.3000031,1.0999985,1.3000031,2,2.5,2c1.8000031,0,2.9000015-1.5,2.9000015-3.7000008
		c0-2-1-3.5999985-2.8000031-3.5999985c-1.1999969,0-2.3000031,0.9000015-2.5,2.0999985C97,38,97,38.2999992,97,38.5v1.7000008
		H96.9000015z"/>
	<path fill="#FFFFFF" d="M108,41.7999992c0.9000015,0.5,2.3000031,1,3.6999969,1
		C113.5,42.7999992,114.5,41.8999977,114.5,40.7000008c0-1.2000008-0.8000031-1.9000015-2.8000031-2.5999985
		c-2.5999985-0.9000015-4.1999969-2.2999992-4.1999969-4.5c0-2.5,2.0999985-4.5,5.5-4.5
		c1.6999969,0,2.9000015,0.3999996,3.6999969,0.7999992L116,32.2000008C115.4000015,31.9000015,114.4000015,31.5,112.9000015,31.5
		c-1.8000031,0-2.5999985,1-2.5999985,1.9000015c0,1.2000008,0.9000015,1.7000008,3,2.5999985c2.6999969,1,4,2.4000015,4,4.5999985
		c0,2.5-1.9000015,4.5999985-5.9000015,4.5999985c-1.5999985,0-3.3000031-0.5-4.1999969-1L108,41.7999992z"/>
	<path fill="#FFFFFF" d="M123.5,30.5v3.2000008h2.6999969v2.0999985H123.5v4.9000015
		c0,1.4000015,0.4000015,2.0999985,1.4000015,2.0999985c0.5,0,0.9000015-0.0999985,1.0999985-0.0999985v2.2000008
		c-0.4000015,0.2000008-1.0999985,0.2999992-2,0.2999992c-1,0-1.9000015-0.2999992-2.4000015-0.9000015
		c-0.5999985-0.5999985-0.9000015-1.7000008-0.9000015-3.0999985v-5.2999992h-1.5999985v-2.0999985h1.5999985v-2.5L123.5,30.5z"/>
	<path fill="#FFFFFF" d="M139.3000031,39.2000008c0,4.0999985-2.8999939,6-5.6999969,6
		C130.4000092,45.2000008,128,43,128,39.4000015C128,35.7000008,130.3999939,33.5,133.8000031,33.5
		C137.1000061,33.4000015,139.3000031,35.7999992,139.3000031,39.2000008z M130.8999939,39.2999992
		c0,2.2000008,1.1000061,3.7999992,2.8000031,3.7999992c1.6000061,0,2.6999969-1.5999985,2.6999969-3.7999992
		c0-1.7000008-0.8000031-3.7000008-2.6999969-3.7000008C131.6999969,35.5,130.8999939,37.4000015,130.8999939,39.2999992z"/>
	<path fill="#FFFFFF" d="M142.1000061,37.2999992c0-1.5,0-2.5999985-0.1000061-3.5999985h2.5l0.1000061,2.0999985h0.1000061
		c0.6000061-1.5999985,1.8999939-2.4000015,3.1000061-2.4000015c0.3000031,0,0.3999939,0,0.6999969,0.0999985v2.7000008
		c-0.1999969,0-0.5-0.0999985-0.8000031-0.0999985c-1.3999939,0-2.3000031,0.9000015-2.5,2.0999985
		c0,0.2999992-0.1000061,0.5999985-0.1000061,0.9000015v5.7999992h-2.8000031v-7.5999985H142.1000061z"/>
	<path fill="#FFFFFF" d="M152.5,40.0999985c0.1000061,2,1.6999969,2.9000015,3.3999939,2.9000015
		c1.3000031,0,2.3000031-0.2000008,3.1000061-0.5l0.3999939,2c-1,0.4000015-2.3000031,0.7000008-3.8999939,0.7000008
		c-3.6000061,0-5.8000031-2.2000008-5.8000031-5.7000008c0-3.0999985,1.8999939-6,5.5-6S160,36.5,160,38.9000015
		c0,0.5,0,0.9000015-0.1000061,1.2000008C159.8999939,40.1000023,152.5,40.1000023,152.5,40.0999985z M157.3999939,38.0999985
		c0-1-0.3999939-2.7000008-2.3000031-2.7000008c-1.6999969,0-2.5,1.5999985-2.6000061,2.7000008H157.3999939z"/>
	<g>
		<path fill="#FFFFFF" d="M71.6225586,10.4589844v8.4462891l0.8261719,0.0283203l-0.0839844,3.2353516h-0.953125
			l-0.0839844-2.269043h-5.953125l-0.0839844,2.269043h-0.9521484l-0.0839844-3.2353516l0.7138672-0.0283203
			c0.3505859-0.644043,0.7001953-1.3305664,0.9248047-2.0732422c0.3222656-1.0922852,0.4482422-2.3530273,0.4482422-3.9780273
			v-2.3950195H71.6225586z M67.4760742,13.2460938c0,1.5131836-0.140625,2.7875977-0.4765625,3.8520508
			c-0.1962891,0.6586914-0.4902344,1.2890625-0.7705078,1.7929688h4.1748047v-7.4238281h-2.9277344V13.2460938z"/>
		<path fill="#FFFFFF" d="M79.9946289,16.4541016c0,2.5073242-1.7373047,3.6000977-3.3759766,3.6000977
			c-1.8349609,0-3.25-1.3447266-3.25-3.4882812c0-2.269043,1.4853516-3.5996094,3.3623047-3.5996094
			C78.6772461,12.9663086,79.9946289,14.3808594,79.9946289,16.4541016z M74.6157227,16.5239258
			c0,1.4848633,0.8544922,2.6054688,2.0585938,2.6054688c1.1767578,0,2.0595703-1.1064453,2.0595703-2.6333008
			c0-1.1484375-0.5742188-2.6054688-2.03125-2.6054688S74.6157227,15.2353516,74.6157227,16.5239258z"/>
		<path fill="#FFFFFF" d="M86.3774414,19.6479492c-0.3222656,0.1679688-1.0371094,0.3920898-1.9472656,0.3920898
			c-2.0449219,0-3.3759766-1.3867188-3.3759766-3.4599609c0-2.0869141,1.4287109-3.6000977,3.6416016-3.6000977
			c0.7285156,0,1.3730469,0.1821289,1.7089844,0.3505859l-0.2792969,0.9521484
			c-0.2949219-0.1679688-0.7568359-0.3222656-1.4296875-0.3222656c-1.5546875,0-2.3945312,1.1489258-2.3945312,2.5634766
			c0,1.5688477,1.0078125,2.5356445,2.3525391,2.5356445c0.7011719,0,1.1630859-0.1821289,1.5136719-0.3364258
			L86.3774414,19.6479492z"/>
		<path fill="#FFFFFF" d="M92.621582,13.1201172v0.9804688h-2.1152344v5.7993164h-1.21875v-5.7993164h-2.1152344v-0.9804688
			H92.621582z"/>
		<path fill="#FFFFFF" d="M94.4379883,13.1201172l1.4848633,4.0063477c0.1533203,0.4482422,0.3212891,0.9804688,0.4335938,1.3867188
			h0.0283203c0.1259766-0.40625,0.265625-0.9243164,0.4345703-1.4150391l1.3447266-3.9780273h1.3027344l-1.8496094,4.8325195
			c-0.8828125,2.3256836-1.484375,3.5161133-2.3251953,4.2446289c-0.6020508,0.5322266-1.2036133,0.7421875-1.512207,0.7983398
			l-0.3085938-1.0366211c0.3085938-0.0981445,0.7148438-0.2939453,1.0791016-0.6020508
			c0.3359375-0.2666016,0.7553711-0.7426758,1.0356445-1.3730469c0.0566406-0.1259766,0.0986328-0.2241211,0.0986328-0.2939453
			c0-0.0703125-0.0283203-0.168457-0.0839844-0.3222656l-2.5073242-6.2475586H94.4379883z"/>
		<path fill="#FFFFFF" d="M106.1582031,13.1201172v6.7797852h-1.2324219v-5.7993164h-3.1523438v5.7993164h-1.21875v-6.7797852
			H106.1582031z"/>
		<path fill="#FFFFFF" d="M109.3476562,13.1201172v2.7314453h3.2216797v-2.7314453h1.21875v6.7797852h-1.21875v-3.0678711
			h-3.2216797v3.0678711h-1.21875v-6.7797852H109.3476562z"/>
		<path fill="#FFFFFF" d="M121.9365234,16.4541016c0,2.5073242-1.7373047,3.6000977-3.3759766,3.6000977
			c-1.8349609,0-3.25-1.3447266-3.25-3.4882812c0-2.269043,1.484375-3.5996094,3.3623047-3.5996094
			C120.6191406,12.9663086,121.9365234,14.3808594,121.9365234,16.4541016z M116.5576172,16.5239258
			c0,1.4848633,0.8544922,2.6054688,2.0585938,2.6054688c1.1767578,0,2.0595703-1.1064453,2.0595703-2.6333008
			c0-1.1484375-0.5742188-2.6054688-2.03125-2.6054688S116.5576172,15.2353516,116.5576172,16.5239258z"/>
		<path fill="#FFFFFF" d="M126.4267578,13.2041016c0.4765625-0.0839844,1.359375-0.1538086,2.1572266-0.1538086
			c1.1347656,0,3.0117188,0.1821289,3.0117188,1.6948242c0,0.840332-0.6445312,1.3588867-1.4140625,1.5268555v0.027832
			c0.9941406,0.1401367,1.7226562,0.7006836,1.7226562,1.6811523c0,1.7788086-2.2412109,2.0029297-3.5722656,2.0029297
			c-0.7558594,0-1.5410156-0.0561523-1.9052734-0.0839844V13.2041016z M127.5898438,19.0874023
			c0.3505859,0.0419922,0.6025391,0.0561523,0.9941406,0.0561523c0.8271484,0,2.0595703-0.1962891,2.0595703-1.1767578
			s-0.9804688-1.1904297-2.1572266-1.1904297h-0.8964844V19.0874023z M127.6035156,15.9638672h0.9248047
			c0.9101562,0,1.8486328-0.2661133,1.8486328-1.0644531c0-0.6723633-0.5878906-0.9946289-1.8203125-0.9946289
			c-0.40625,0-0.6582031,0.027832-0.953125,0.0556641V15.9638672z"/>
	</g>
</g>
<g>
	<path fill="#FFFFFF" d="M44.2999992,29.6000004c-0.0999985-5.3999996,4.4000015-8,4.5999985-8.1000004
		c-2.5-3.7000008-6.4000015-4.2000008-7.7999992-4.2000008c-3.2999992-0.2999992-6.5,2-8.2000008,2
		s-4.2999992-1.8999996-7-1.8999996C22.2999973,17.5,18.9999981,19.5,17.0999985,22.7000008
		c-3.8000002,6.5-1,16.2000008,2.7000008,21.5c1.7999992,2.5999985,3.8999996,5.5,6.7000008,5.4000015
		c2.7000008-0.0999985,3.7000008-1.7000008,7-1.7000008s4.2000008,1.7000008,7,1.7000008
		c2.9000015-0.0999985,4.7000008-2.5999985,6.5-5.2000008c2.0999985-3,2.9000015-5.9000015,2.9000015-6.0999985
		C49.9000015,38.2000008,44.2999992,36.0999985,44.2999992,29.6000004z"/>
	<path fill="#FFFFFF" d="M38.9000015,13.8000002C40.4000015,12,41.4000015,9.5,41.1000023,7
		c-2.0999985,0.0999999-4.7000008,1.3999996-6.2999992,3.1999998c-1.4000015,1.6000004-2.5999985,4.0999994-2.2999992,6.5999994
		C35,17,37.4000015,15.6000004,38.9000015,13.8000002z"/>
</g>
</svg>
